/* XPM */
static char *cutechess_32x32[] = {
/* columns rows colors chars-per-pixel */
"32 32 168 2 ",
"   c black",
".  c #0F0E0E",
"X  c #1B1C1C",
"o  c #16222B",
"O  c #18252D",
"+  c #28292B",
"@  c #2B3338",
"#  c #313435",
"$  c #32373A",
"%  c #30383D",
"&  c #0C2F45",
"*  c #0E3148",
"=  c #353C41",
"-  c #17415E",
";  c #19435F",
":  c #374B59",
">  c #1B4661",
",  c #1C4965",
"<  c #1D4B69",
"1  c #1F597E",
"2  c #204D6B",
"3  c #284F69",
"4  c #2A526C",
"5  c #3F5461",
"6  c #325469",
"7  c #21577B",
"8  c #225A7E",
"9  c #385E77",
"0  c #345F7A",
"q  c #3A607A",
"w  c #434D53",
"e  c #4B5054",
"r  c #565B5E",
"t  c #5F6C75",
"y  c #59707F",
"u  c #6C7277",
"i  c #235C81",
"p  c #2D6285",
"a  c #2B688F",
"s  c #306487",
"d  c #366B8D",
"f  c #3B6C8B",
"g  c #357096",
"h  c #3C7397",
"j  c #397BA5",
"k  c #377CA8",
"l  c #3A7DA9",
"z  c #3476A2",
"x  c #416882",
"c  c #4B6E85",
"v  c #426F8C",
"b  c #4D7086",
"n  c #42708E",
"m  c #4A718A",
"M  c #457392",
"N  c #487694",
"B  c #45799A",
"V  c #4B7C9C",
"C  c #547B94",
"Z  c #517F9D",
"A  c #667A87",
"S  c #6A7E8A",
"D  c #6B7A83",
"F  c #56829E",
"G  c #5E859F",
"H  c #4F82A2",
"J  c #4585AE",
"K  c #4884AB",
"L  c #5385A4",
"P  c #5D88A4",
"I  c #5387A9",
"U  c #5789A9",
"Y  c #5C8BAB",
"T  c #5D86A1",
"R  c #4686B0",
"E  c #4D8BB4",
"W  c #4B8EBA",
"Q  c #538EB4",
"!  c #5A90B3",
"~  c #5491B8",
"^  c #5C95BA",
"/  c #658DA7",
"(  c #6190AE",
")  c #6B94AE",
"_  c #7392A7",
"`  c #7095AC",
"'  c #6091B0",
"]  c #6896B3",
"[  c #6197BA",
"{  c #659ABC",
"}  c #769DB6",
"|  c #789EB8",
" . c #5397C2",
".. c #5799C4",
"X. c #699EC2",
"o. c #659CC1",
"O. c #62A0C8",
"+. c #6FA8CC",
"@. c #6CA0C2",
"#. c #73A4C4",
"$. c #70A6C9",
"%. c #7CABCA",
"&. c #7BA6C3",
"*. c #6CAAD2",
"=. c #7CB1D3",
"-. c #7EB5D8",
";. c #8498A5",
":. c #8194A1",
">. c #89A1B1",
",. c #83A6BD",
"<. c #9AA8B1",
"1. c #84ABC4",
"2. c #86AFCA",
"3. c #82B1CF",
"4. c #8CB4CE",
"5. c #99B7CC",
"6. c #9CBACD",
"7. c #8DB5D0",
"8. c #84B8D9",
"9. c #8CBAD8",
"0. c #93BAD3",
"q. c #9BBDD3",
"w. c #96BFDA",
"e. c #99BFD8",
"r. c #A1B8C7",
"t. c #89BFE3",
"y. c #9EC0D6",
"u. c #B5C3CD",
"i. c #B9C4CC",
"p. c #A2C4DA",
"a. c #ADCADC",
"s. c #A6C1D2",
"d. c #B2CBDB",
"f. c #B6C9D6",
"g. c #89C0E3",
"h. c #94C4E5",
"j. c #9BC6E2",
"k. c #9BCAE7",
"l. c #A1C8E2",
"z. c #AFCDE1",
"x. c #A3CEE9",
"c. c #B0CEE1",
"v. c #A6D2EE",
"b. c #ACD1EA",
"n. c #BCD6E7",
"m. c #B4D7EC",
"M. c #B6D9EF",
"N. c #BDD9EA",
"B. c #B9DDF4",
"V. c #CFDBE2",
"C. c #C4DBEA",
"Z. c #C9DDE9",
"A. c #C0D5E3",
"S. c #CDE2EF",
"D. c #CBE2F1",
"F. c #D5E6F2",
"G. c #D6E8F4",
"H. c #DDEAF4",
"J. c #D5EAF8",
"K. c #DDF2FF",
"L. c #E1EEF7",
"P. c #E0EFF8",
"I. c #E4F1F9",
"U. c #EBF4FA",
"Y. c #EFF8FD",
"T. c #F2F7FB",
"R. c #F4F9FE",
"E. c None",
/* pixels */
"E.E.E.E.E.E.E.E.E.E.E.E.E.E.E.E.E.E.E.E.E.E.E.E.E.E.E.E.E.E.E.E.",
"E.E.E.E.E.E.E.E.E.E.E.E.E.0.C.E.E.E.E.E.E.E.E.E.E.E.E.E.E.E.E.E.",
"E.E.E.E.E.E.E.E.E.E.E.E.E.R R D.Z.E.E.E.E.E.E.E.E.E.E.E.E.E.E.E.",
"E.E.E.E.E.E.E.E.E.E.E.E.l.=.7.q.r.>.E.E.E.E.E.E.E.E.E.E.E.E.E.E.",
"E.E.E.E.E.E.E.E.E.E.E.E.8.-.g L V t.y.E.E.E.E.E.E.E.E.E.E.E.E.E.",
"E.E.E.E.E.E.E.E.E.E.E.E.*.{ h g 8 ( g.5.E.E.E.E.E.E.E.E.E.E.E.E.",
"E.E.E.E.E.E.E.E.E.E.E.I.9.a H i i 8 2.x.E.E.E.E.E.E.E.E.E.E.E.E.",
"E.E.E.E.E.E.E.E.E.E.E.H.7.I d i i h s &.h.E.E.E.E.E.E.E.E.E.E.E.",
"E.E.E.E.E.E.E.E.E.E.E.P.J #.B i i V 8 8 1.h.E.E.E.E.E.E.E.E.E.E.",
"E.E.E.E.E.E.E.E.E.E.E.n.k o.E Z Z 8 i i 8 2.h.E.E.E.E.E.E.E.E.E.",
"E.E.E.E.E.E.E.E.E.E.E.a.E [ J ^ 2.8 i i i p y.D.L.E.E.E.E.E.E.E.",
"E.E.E.E.E.E.E.E.E.E.E.0.{ U ~ ^ k.e.s i 8 U l { B.$ E.E.E.E.E.E.",
"E.E.E.E.E.E.E.E.E.E.E.0.W 4 3 ` j.m.v.L s ~ l b.;.E.E.E.E.E.E.E.",
"E.E.E.E.E.E.E.E.E.E.E.p.^ c 0 T $.b # t _ l %.B.. E.E.E.E.E.E.E.",
"E.E.E.E.E.E.E.E.E.E.E.p.J m > 0 O.@.E.E.E.[ B.D E.E.E.E.E.E.E.E.",
"E.E.E.E.E.E.E.E.E.E.E.c.l Z > * '  .E.E.E.E.# E.E.E.E.E.E.E.E.E.",
"E.E.E.E.E.E.E.E.E.E.E.C.k ! - > x ..] E.E.E.E.E.E.E.E.E.E.E.E.E.",
"E.E.E.E.E.E.E.E.E.E.E.G.^ X.b 0 9 3.=.E.E.E.E.E.E.E.E.E.E.E.E.E.",
"E.E.E.E.E.E.E.E.E.E.E.H.g l n 2 < ) W <.E.E.E.E.E.E.E.E.E.E.E.E.",
"E.E.E.E.E.E.E.E.E.E.E.H.j j v < < v [ d.E.E.E.E.E.E.E.E.E.E.E.E.",
"E.E.E.E.E.E.E.E.E.E.E.U.l j m < , M f m.E.E.E.E.E.E.E.E.E.E.E.E.",
"E.E.E.E.E.E.E.E.E.E.E.R.{ I n 2 , N v d.u E.E.E.E.E.E.E.E.E.E.E.",
"E.E.E.E.E.E.E.E.E.E.U.R.E J C 6 4 F 7 1.U.E.E.E.E.E.E.E.E.E.E.E.",
"E.E.E.E.E.E.E.E.E.R.U.R.4.E q & & f N f.Y.H.E.E.E.E.E.E.E.E.E.E.",
"E.E.E.E.E.E.E.E.U.L.L.K 2.Z.i.i.i.V.r.G / I.I.E.E.E.E.E.E.E.E.E.",
"E.E.E.E.E.E.E.E.H.L.I.Z.4.) o o O 5 P 6.F.I.J.r E.E.E.E.E.E.E.E.",
"E.E.E.E.E.E.E.E.E.%.Q 7.C.I.K.K.K.K.G.6.P p A.E.E.E.E.E.E.E.E.E.",
"E.E.E.E.E.E.E.E.E.D.j.$.o.4 , 2 > ; V B Y 7.u.E.E.E.E.E.E.E.E.E.",
"E.E.E.E.E.E.E.E.E.d.7.N.N.,.| | | } q.z.s.1.e E.E.E.E.E.E.E.E.E.",
"E.E.E.E.E.E.E.E.E.E.w b #.:.A A S S ,.b : X E.E.E.E.E.E.E.E.E.E.",
"E.E.E.E.E.E.E.E.E.E.E.E.E.= @ % % % +   E.E.E.E.E.E.E.E.E.E.E.E.",
"E.E.E.E.E.E.E.E.E.E.E.E.E.E.E.E.E.E.E.E.E.E.E.E.E.E.E.E.E.E.E.E."
};
